<svg xmlns="http://www.w3.org/2000/svg" xmlns:xlink="http://www.w3.org/1999/xlink" version="1.1" x="0px" y="0px" viewBox="0 0 100 125" enable-background="new 0 0 100 100" xml:space="preserve"><g><path fill="#000000" d="M68.717,74.964V72.44h-0.001c0-4.304-8.098-6.626-15.718-6.626S37.28,68.137,37.28,72.44h-0.001v2.536   c-3.85,1.968-5.979,4.582-5.979,7.413c0,5.985,9.53,10.674,21.698,10.674s21.698-4.688,21.698-10.674   C74.696,79.563,72.571,76.929,68.717,74.964z M39.406,75.895c2.907,2.079,8.361,3.174,13.592,3.174s10.685-1.095,13.592-3.174   v5.088c0,1.879-5.171,4.5-13.592,4.5s-13.592-2.621-13.592-4.5V75.895z M52.998,67.94c8.421,0,13.592,2.621,13.592,4.5   c0,1.88-5.171,4.502-13.592,4.502S39.406,74.32,39.406,72.44C39.406,70.562,44.577,67.94,52.998,67.94z M52.998,90.937   c-10.609,0-19.572-3.914-19.572-8.547c0-1.747,1.392-3.52,3.854-4.993v3.586c0,4.304,8.099,6.627,15.719,6.627   s15.719-2.323,15.719-6.627v-3.594c2.492,1.48,3.854,3.23,3.854,5.001C72.57,87.022,63.607,90.937,52.998,90.937z"/><path fill="#000000" d="M36.541,43.437c1.245,0,2.41-0.42,3.339-1.155c0.777,2.044,2.759,3.501,5.073,3.501   c1.092,0,2.122-0.321,2.986-0.892v9.916c0,2.988,2.432,5.42,5.421,5.42s5.422-2.432,5.422-5.42v-20.12   c4.649,0.431,8.635-3.296,8.635-7.903V9.174c0-0.587-0.477-1.063-1.063-1.063S65.29,8.587,65.29,9.174v17.609   c0,3.432-3.025,6.201-6.508,5.759v-9.532c0-0.587-0.477-1.063-1.063-1.063s-1.063,0.476-1.063,1.063v10.41v21.386   c0,1.816-1.478,3.293-3.295,3.293c-1.816,0-3.294-1.477-3.294-3.293V41.964v-5.039c0-0.587-0.477-1.063-1.063-1.063   s-1.063,0.476-1.063,1.063v4.803c-0.536,1.174-1.686,1.929-2.986,1.929c-1.818,0-3.298-1.478-3.299-3.317l-0.016-0.749   c-0.001-0.025-0.012-0.047-0.014-0.072c0.002-0.026,0.015-0.049,0.015-0.075v-5.037c0-0.587-0.477-1.063-1.063-1.063   s-1.063,0.476-1.063,1.063v4.969c-0.534,1.178-1.679,1.934-2.972,1.934c-1.817,0-3.295-1.478-3.297-3.231l0.126-2.089   c0.002-0.03-0.01-0.056-0.01-0.085c0.001-0.021,0.012-0.039,0.012-0.06v-5.037c0-0.587-0.477-1.063-1.063-1.063   s-1.063,0.476-1.063,1.063v4.879c-0.532,1.145-1.781,1.935-3.113,1.935c-1.817,0-3.295-1.478-3.295-3.294V18.174   c0-0.587-0.477-1.063-1.063-1.063s-1.063,0.476-1.063,1.063v16.153c0,2.989,2.433,5.42,5.422,5.42c1.105,0,2.164-0.325,3.053-0.894   C31.589,41.447,33.837,43.437,36.541,43.437z"/><path fill="#000000" d="M53.39,56.955c1.288,0,2.337-1.051,2.337-2.34c0-0.271,0-1.136,0-1.405c0-0.617-0.498-1.116-1.115-1.116   h-2.445c-0.616,0-1.115,0.499-1.115,1.116v1.177c0,0.041,0.019,0.074,0.021,0.113c-0.003,0.041-0.021,0.073-0.021,0.115   C51.051,55.904,52.1,56.955,53.39,56.955z"/></g><text x="0" y="115" fill="#000000" font-size="5px" font-weight="bold" font-family="'Helvetica Neue', Helvetica, Arial-Unicode, Arial, Sans-serif">Created by Anthony Bossard</text><text x="0" y="120" fill="#000000" font-size="5px" font-weight="bold" font-family="'Helvetica Neue', Helvetica, Arial-Unicode, Arial, Sans-serif">from the Noun Project</text></svg>